<!--?xml version="1.0" encoding="utf-8"?-->
<!-- Generator: Adobe Illustrator 18.0.0, SVG Export Plug-In . SVG Version: 6.00 Build 0)  -->

<svg version="1.1" id="_x32_" xmlns="http://www.w3.org/2000/svg" xmlns:xlink="http://www.w3.org/1999/xlink" x="0px" y="0px" viewBox="0 0 512 512" style="width: 128px; height: 128px; opacity: 1;" xml:space="preserve">
<style type="text/css">
	.st0{fill:#4B4B4B;}
</style>
<g>
	<path class="st0" d="M452.655,104.373H314.768l12.873-55.107l93.027-22.582c7.322-1.85,0.926-28.442-6.472-26.592L304.749,26.684
		l-18.112,77.689H59.345l39.076,388.533h0.023c0,0.012-0.016,0.023-0.016,0.037c0,10.524,70.543,19.057,157.562,19.057
		s157.562-8.533,157.562-19.057c0-0.014-0.016-0.025-0.016-0.037h0.041L452.655,104.373z M371.11,445.043h-0.154
		c0.076,0.23,0.076,0.461,0.076,0.693c0,10.558-51.484,19.037-115.07,19.037s-115.148-8.479-115.148-19.037
		c0-0.232,0-0.463,0.074-0.693l-27.592-292.807h162.166l-14.953,64.125c-17.572-12.947-27.516-33.371-58.576-33.371
		c-27.826,0-38.692,16.262-53.26,28.98l16.648,202.32c0,10.523,39.316,19.056,87.813,19.056c48.5,0,87.814-8.533,87.814-19.056
		c0-0.055-0.035-0.108-0.037-0.162l19.562-225.974c-23.816,11.637-31.524,38.613-67.363,38.613c-2.389,0-4.701-0.076-6.86-0.308
		l17.342-74.223h95.033L371.11,445.043z" style="fill: rgb(82, 122, 204);"></path>
</g>
</svg>
