<!--?xml version="1.0" encoding="utf-8"?-->
<!-- Generator: Adobe Illustrator 18.1.1, SVG Export Plug-In . SVG Version: 6.00 Build 0)  -->

<svg version="1.1" id="_x32_" xmlns="http://www.w3.org/2000/svg" xmlns:xlink="http://www.w3.org/1999/xlink" x="0px" y="0px" viewBox="0 0 512 512" style="width: 128px; height: 128px; opacity: 1;" xml:space="preserve">
<style type="text/css">
	.st0{fill:#4B4B4B;}
</style>
<g>
	<path class="st0" d="M0,180.929L36.563,217.5c120.992-120.976,317.882-120.976,438.865,0L512,180.929
		C370.87,39.798,141.164,39.749,0,180.929z" style="fill: rgb(82, 122, 204);"></path>
	<path class="st0" d="M73.143,254.072l36.563,36.563c80.68-80.664,211.932-80.64,292.58,0l36.572-36.563
		C338.03,153.236,173.97,153.236,73.143,254.072z" style="fill: rgb(82, 122, 204);"></path>
	<path class="st0" d="M146.286,327.214l36.572,36.572c40.336-40.344,105.942-40.344,146.286,0l36.572-36.572
		C305.231,266.723,206.77,266.723,146.286,327.214z" style="fill: rgb(82, 122, 204);"></path>
	<path class="st0" d="M219.429,400.358L256,436.938l36.563-36.58C272.376,380.169,239.617,380.169,219.429,400.358z" style="fill: rgb(82, 122, 204);"></path>
</g>
</svg>
