<svg xmlns="http://www.w3.org/2000/svg" width="81.365" height="100" viewBox="0 0 81.365 100">
  <g id="CSSアイコン" transform="translate(-9.318)">
    <path id="パス_154" data-name="パス 154" d="M73.909,0h-35.8L36.289,1.819,11.137,26.973,9.318,28.792V83.224A16.8,16.8,0,0,0,26.094,100H73.909A16.8,16.8,0,0,0,90.682,83.224V16.777A16.794,16.794,0,0,0,73.909,0ZM84.472,83.223A10.563,10.563,0,0,1,73.909,93.788H26.094A10.564,10.564,0,0,1,15.528,83.223V31.365H31.879a8.8,8.8,0,0,0,8.8-8.8V6.212H73.909A10.564,10.564,0,0,1,84.472,16.777Z" fill="#094067"/>
    <path id="パス_155" data-name="パス 155" d="M33.12,52.529a2.713,2.713,0,0,1,2.441,1.325,1.993,1.993,0,0,0,1.724,1.009,1.724,1.724,0,0,0,1.778-1.751,2.3,2.3,0,0,0-.346-1.167,6.2,6.2,0,0,0-5.6-2.865c-3.158,0-5.493,1.485-6.448,4.431a14.459,14.459,0,0,0-.5,4.881,14.454,14.454,0,0,0,.5,4.881c.955,2.945,3.289,4.431,6.448,4.431a6.2,6.2,0,0,0,5.6-2.865,2.3,2.3,0,0,0,.346-1.167,1.723,1.723,0,0,0-1.778-1.751,1.994,1.994,0,0,0-1.724,1.008,2.712,2.712,0,0,1-2.441,1.327,2.633,2.633,0,0,1-2.706-1.99,12.344,12.344,0,0,1-.292-3.873,12.35,12.35,0,0,1,.292-3.873A2.633,2.633,0,0,1,33.12,52.529Z" fill="#ef4565"/>
    <path id="パス_156" data-name="パス 156" d="M49.834,56.561l-.955-.134c-2.095-.292-2.812-.98-2.812-1.99,0-1.14.848-1.937,2.441-1.937a7.342,7.342,0,0,1,3.1.743,2.6,2.6,0,0,0,1.14.292,1.661,1.661,0,0,0,1.7-1.7,1.771,1.771,0,0,0-.93-1.566,10.448,10.448,0,0,0-5.04-1.193c-3.9,0-6.393,2.2-6.393,5.518,0,3.184,2.016,4.908,5.7,5.413l.957.132c2.146.292,2.785.955,2.785,2.016,0,1.248-1.036,2.123-2.946,2.123a7.464,7.464,0,0,1-3.873-1.167,2.285,2.285,0,0,0-1.14-.319,1.71,1.71,0,0,0-1.751,1.725,1.957,1.957,0,0,0,.927,1.645A10.775,10.775,0,0,0,48.429,67.7c4.694,0,7.083-2.414,7.083-5.677S53.575,57.092,49.834,56.561Z" fill="#094067"/>
    <path id="パス_157" data-name="パス 157" d="M66.152,56.561l-.955-.134c-2.1-.292-2.812-.98-2.812-1.99,0-1.14.848-1.937,2.438-1.937a7.322,7.322,0,0,1,3.1.743,2.62,2.62,0,0,0,1.143.292,1.659,1.659,0,0,0,1.7-1.7,1.773,1.773,0,0,0-.927-1.566A10.456,10.456,0,0,0,64.8,49.08c-3.9,0-6.393,2.2-6.393,5.518,0,3.184,2.016,4.908,5.7,5.413l.955.132c2.149.292,2.785.955,2.785,2.016,0,1.248-1.034,2.123-2.943,2.123a7.45,7.45,0,0,1-3.873-1.167,2.288,2.288,0,0,0-1.143-.319,1.712,1.712,0,0,0-1.751,1.725,1.954,1.954,0,0,0,.93,1.645A10.773,10.773,0,0,0,64.744,67.7c4.7,0,7.083-2.414,7.083-5.677S69.891,57.092,66.152,56.561Z" fill="#094067"/>
  </g>
</svg>
