<svg xmlns="http://www.w3.org/2000/svg" width="81.365" height="100" viewBox="0 0 81.365 100">
  <g id="HTMLアイコン" transform="translate(-9.318)">
    <path id="パス_149" data-name="パス 149" d="M73.909,0h-35.8L36.289,1.819,11.137,26.973,9.318,28.792V83.224A16.8,16.8,0,0,0,26.094,100H73.909A16.8,16.8,0,0,0,90.682,83.224V16.777A16.794,16.794,0,0,0,73.909,0ZM84.472,83.223A10.563,10.563,0,0,1,73.909,93.788H26.094A10.564,10.564,0,0,1,15.528,83.223V31.365H31.879a8.8,8.8,0,0,0,8.8-8.8V6.212H73.909A10.564,10.564,0,0,1,84.472,16.777Z" fill="#094067"/>
    <path id="パス_150" data-name="パス 150" d="M31.868,49.451A1.7,1.7,0,0,0,30.136,51.3v4.581a.127.127,0,0,1-.142.143H24.722a.127.127,0,0,1-.142-.143V51.3a1.747,1.747,0,1,0-3.488,0V64.026a1.69,1.69,0,0,0,1.732,1.851,1.72,1.72,0,0,0,1.756-1.851V59.279a.127.127,0,0,1,.142-.143h5.272a.127.127,0,0,1,.142.143v4.747a1.747,1.747,0,1,0,3.488,0V51.3A1.71,1.71,0,0,0,31.868,49.451Z" fill="#ef4565"/>
    <path id="パス_151" data-name="パス 151" d="M45.947,49.594H36.712a1.566,1.566,0,1,0,0,3.109h2.73a.125.125,0,0,1,.142.142V64.026a1.749,1.749,0,1,0,3.491,0V52.845a.125.125,0,0,1,.142-.142h2.73a1.566,1.566,0,1,0,0-3.109Z" fill="#094067"/>
    <path id="パス_152" data-name="パス 152" d="M62.159,49.451c-1.045,0-1.615.57-2.136,1.8l-3.371,7.786h-.1l-3.442-7.786c-.546-1.234-1.116-1.8-2.16-1.8a1.881,1.881,0,0,0-1.923,2.089V64.193a1.594,1.594,0,1,0,3.183,0V56.406h.117L54.849,62.2c.5,1.14.9,1.473,1.707,1.473s1.211-.333,1.71-1.473l2.493-5.792h.117v7.787a1.594,1.594,0,1,0,3.183,0V51.54A1.864,1.864,0,0,0,62.159,49.451Z" fill="#094067"/>
    <path id="パス_153" data-name="パス 153" d="M76.047,62.626H70.3a.126.126,0,0,1-.142-.143V51.3a1.747,1.747,0,1,0-3.488,0V63.978a1.656,1.656,0,0,0,1.756,1.756h7.618a1.566,1.566,0,1,0,0-3.109Z" fill="#094067"/>
  </g>
</svg>
