<svg xmlns="http://www.w3.org/2000/svg" width="81.365" height="100" viewBox="0 0 81.365 100">
  <g id="JSアイコン" transform="translate(-9.318)">
    <path id="パス_158" data-name="パス 158" d="M73.909,0h-35.8L36.289,1.819,11.137,26.973,9.318,28.792V83.224A16.8,16.8,0,0,0,26.094,100H73.909A16.8,16.8,0,0,0,90.682,83.224V16.777A16.794,16.794,0,0,0,73.909,0ZM84.472,83.223A10.563,10.563,0,0,1,73.909,93.788H26.094A10.564,10.564,0,0,1,15.528,83.223V31.365H31.879a8.8,8.8,0,0,0,8.8-8.8V6.212H73.909A10.564,10.564,0,0,1,84.472,16.777Z" fill="#094067"/>
    <path id="パス_159" data-name="パス 159" d="M44.01,49.212a1.9,1.9,0,0,0-1.937,2.069V61.2c0,2.228-.982,3.051-2.468,3.051a2.979,2.979,0,0,1-1.617-.477,2.592,2.592,0,0,0-1.486-.584,1.655,1.655,0,0,0-1.724,1.645,2.07,2.07,0,0,0,.532,1.353A6.019,6.019,0,0,0,39.475,67.7c4.137,0,6.5-2.335,6.5-6.765V51.281A1.911,1.911,0,0,0,44.01,49.212Z" fill="#ef4565"/>
    <path id="パス_160" data-name="パス 160" d="M57.277,56.561l-.955-.134c-2.1-.292-2.812-.98-2.812-1.99,0-1.14.848-1.937,2.438-1.937a7.321,7.321,0,0,1,3.1.743,2.621,2.621,0,0,0,1.143.292,1.659,1.659,0,0,0,1.7-1.7,1.773,1.773,0,0,0-.927-1.566,10.457,10.457,0,0,0-5.04-1.193c-3.9,0-6.393,2.2-6.393,5.518,0,3.184,2.016,4.908,5.7,5.413l.955.132c2.149.292,2.785.955,2.785,2.016,0,1.248-1.034,2.123-2.943,2.123a7.449,7.449,0,0,1-3.873-1.167,2.288,2.288,0,0,0-1.143-.319,1.712,1.712,0,0,0-1.751,1.725,1.954,1.954,0,0,0,.93,1.645A10.772,10.772,0,0,0,55.869,67.7c4.7,0,7.083-2.414,7.083-5.677S61.016,57.092,57.277,56.561Z" fill="#094067"/>
  </g>
</svg>
