<svg xmlns="http://www.w3.org/2000/svg" width="81.366" height="100" viewBox="0 0 81.366 100">
  <g id="動画ファイルアイコン_1" data-name="動画ファイルアイコン 1" transform="translate(-9.317)">
    <path id="パス_161" data-name="パス 161" d="M73.908,0h-35.8L36.29,1.819,11.136,26.973,9.317,28.792V83.223A16.8,16.8,0,0,0,26.093,100H73.908A16.8,16.8,0,0,0,90.683,83.223V16.776A16.794,16.794,0,0,0,73.908,0ZM84.471,83.223A10.564,10.564,0,0,1,73.908,93.788H26.093A10.564,10.564,0,0,1,15.529,83.223V31.365H31.88a8.8,8.8,0,0,0,8.8-8.8V6.212H73.908A10.563,10.563,0,0,1,84.471,16.776V83.223Z" fill="#094067"/>
    <path id="パス_162" data-name="パス 162" d="M44.575,44.76a.447.447,0,0,0-.442-.007.426.426,0,0,0-.218.38V67.3a.418.418,0,0,0,.218.377.444.444,0,0,0,.442,0L63.137,56.587a.434.434,0,0,0,.211-.374.428.428,0,0,0-.211-.372Z" fill="#ef4565"/>
  </g>
</svg>
