<svg xmlns="http://www.w3.org/2000/svg" width="28.183" height="22.894" viewBox="0 0 28.183 22.894">
  <g id="twitterのフリーアイコン素材" transform="translate(-77.81 -16.637)">
    <path id="パス_218" data-name="パス 218" d="M173.958,166.566c.01-.016.023-.03.033-.045a11.545,11.545,0,0,1-2.616.8c-.218.033-.437.061-.659.078a5.8,5.8,0,0,0,2.166-2.386,6.249,6.249,0,0,0,.346-.753l-.034.018c0-.015.014-.029.018-.044a11.576,11.576,0,0,1-3.67,1.4,5.776,5.776,0,0,0-9.867,5.165c.005.036.008.07.013.106a16.382,16.382,0,0,1-10.819-4.834c-.371-.379-.729-.772-1.063-1.189l0,.009-.021-.024a5.767,5.767,0,0,0,1.034,7.1,6.2,6.2,0,0,0,.712.611,5.759,5.759,0,0,1-2.576-.719c0,.024,0,.048,0,.073a5.767,5.767,0,0,0,3.372,5.236,5.876,5.876,0,0,0,1.213.442,5.786,5.786,0,0,1-1.472.193,5.717,5.717,0,0,1-.96-.092c-.032-.009-.067-.011-.1-.021l.005.012-.034,0a5.79,5.79,0,0,0,4.474,3.923,6.019,6.019,0,0,0,.9.109,11.6,11.6,0,0,1-7.153,2.456c-.375,0-.742-.03-1.108-.065-.084-.015-.172-.021-.254-.041l.049.029c-.021,0-.044,0-.065,0a16.358,16.358,0,0,0,8.86,2.6,15.816,15.816,0,0,0,13.033-6.388l.028-.036c.264-.355.508-.721.741-1.093.048-.076.1-.148.148-.225.216-.355.41-.72.6-1.087.047-.091.1-.18.145-.272q.329-.671.595-1.361l.007-.016a16.66,16.66,0,0,0,1.149-5.967q0-.376-.017-.748a11.741,11.741,0,0,0,2.378-2.3c.177-.217.353-.435.518-.661Z" transform="translate(-68.01 -147.174)" fill="#fffffe"/>
  </g>
</svg>
